<svg width="1224" height="1207" xmlns="http://www.w3.org/2000/svg" xmlns:xlink="http://www.w3.org/1999/xlink" xml:space="preserve" overflow="hidden"><g transform="translate(-231 -387)"><path d="M495.241 1085.5 1189.76 1085.5C1280.74 1085.5 1354.5 1173.03 1354.5 1281 1354.5 1388.97 1280.74 1476.5 1189.76 1476.5L495.241 1476.5C404.257 1476.5 330.5 1388.97 330.5 1281 330.5 1173.03 404.257 1085.5 495.241 1085.5Z" stroke="#FFFFFF" stroke-width="68.75" stroke-miterlimit="8" fill="none" fill-rule="evenodd"/><path d="M595.5 731C595.5 592.1 708.324 479.5 847.5 479.5 986.676 479.5 1099.5 592.1 1099.5 731 1099.5 869.9 986.676 982.5 847.5 982.5 708.324 982.5 595.5 869.9 595.5 731Z" stroke="#FFFFFF" stroke-width="68.75" stroke-miterlimit="8" fill="none" fill-rule="evenodd"/></g></svg>