<svg width="1200" height="907" xmlns="http://www.w3.org/2000/svg" xmlns:xlink="http://www.w3.org/1999/xlink" xml:space="preserve" overflow="hidden"><g transform="translate(-216 -1939)"><path d="M1197.5 2121.31 1197.5 2533.69C1197.5 2587.71 1159.44 2631.5 1112.5 2631.5 1065.56 2631.5 1027.5 2587.71 1027.5 2533.69L1027.5 2121.31C1027.5 2067.29 1065.56 2023.5 1112.5 2023.5 1159.44 2023.5 1197.5 2067.29 1197.5 2121.31Z" stroke="#FFFFFF" stroke-width="55" stroke-miterlimit="8" fill="none" fill-rule="evenodd"/><path d="M897.5 2326.38 897.5 2574.62C897.5 2607.14 859.444 2633.5 812.5 2633.5 765.556 2633.5 727.5 2607.14 727.5 2574.62L727.5 2326.38C727.5 2293.86 765.556 2267.5 812.5 2267.5 859.444 2267.5 897.5 2293.86 897.5 2326.38Z" stroke="#FFFFFF" stroke-width="55" stroke-miterlimit="8" fill="none" fill-rule="evenodd"/><path d="M599.5 2224.56 599.5 2549.44C599.5 2592 561.444 2626.5 514.5 2626.5 467.556 2626.5 429.5 2592 429.5 2549.44L429.5 2224.56C429.5 2182 467.556 2147.5 514.5 2147.5 561.444 2147.5 599.5 2182 599.5 2224.56Z" stroke="#FFFFFF" stroke-width="55" stroke-miterlimit="8" fill="none" fill-rule="evenodd"/><path d="M337 2713 1289.59 2716.04" stroke="#FFFFFF" stroke-width="26.3542" stroke-miterlimit="8" fill="none" fill-rule="evenodd"/></g></svg>