<svg width="385" height="420" xmlns="http://www.w3.org/2000/svg" xmlns:xlink="http://www.w3.org/1999/xlink" xml:space="preserve" overflow="hidden"><g transform="translate(14 19)"><path d="M0 122.211 0 15.2765 34.1701 49.3933C68.3399 18.8407 113.73 0 163.2 0 270.301 0 357.001 86.5657 357.001 193.5 357.001 300.434 270.301 387 163.2 387 109.65 387 61.1999 365.104 26.01 330.478L69.3601 287.195C93.33 311.128 126.48 325.895 163.2 325.895 236.13 325.895 295.801 266.317 295.801 193.5 295.801 120.683 236.13 61.1051 163.2 61.1051 130.56 61.1051 100.47 72.817 77.52 92.6763L107.1 122.211 0 122.211Z" stroke="#156082" stroke-width="27.5" stroke-linecap="round" stroke-miterlimit="8" fill="none" fill-rule="evenodd"/></g></svg>