<svg width="1061" height="1145" xmlns="http://www.w3.org/2000/svg" xmlns:xlink="http://www.w3.org/1999/xlink" xml:space="preserve" overflow="hidden"><g transform="translate(-234 -1675)"><path d="M368 2632.67 1116.63 2331C1149.42 2331 1176 2358.01 1176 2391.33L1176 2632.67C1176 2665.99 1149.42 2693 1116.63 2693L427.367 2693C394.58 2693 368 2665.99 368 2632.67Z" stroke="#FFFFFF" stroke-width="45.8333" stroke-miterlimit="8" fill="none" fill-rule="evenodd"/><path d="M0 301.665 761.604 0C794.96 0 822 27.0126 822 60.3345L822 301.665C822 334.987 794.96 362 761.604 362L60.3956 362C27.04 362 0 334.987 0 301.665Z" stroke="#FFFFFF" stroke-width="45.8333" stroke-miterlimit="8" fill="none" fill-rule="evenodd" transform="matrix(-1 0 0 1 1173 2331)"/><path d="M403.5 2470 445.954 2444.88 468 2396.5 490.046 2444.88 532.5 2470 490.046 2495.12 468 2543.5 445.954 2495.12Z" stroke="#FFFFFF" stroke-width="4.58333" stroke-miterlimit="8" fill="#FFFFFF" fill-rule="evenodd"/><path d="M525.5 2007C525.5 1868.65 637.653 1756.5 776 1756.5 914.347 1756.5 1026.5 1868.65 1026.5 2007 1026.5 2145.35 914.347 2257.5 776 2257.5 637.653 2257.5 525.5 2145.35 525.5 2007Z" stroke="#FFFFFF" stroke-width="55" stroke-miterlimit="8" fill="none" fill-rule="evenodd"/><path d="M1007.5 2466 1050.28 2440.88 1072.5 2392.5 1094.72 2440.88 1137.5 2466 1094.72 2491.12 1072.5 2539.5 1050.28 2491.12Z" stroke="#FFFFFF" stroke-width="4.58333" stroke-miterlimit="8" fill="#FFFFFF" fill-rule="evenodd"/></g></svg>