<svg width="836" height="588" xmlns="http://www.w3.org/2000/svg" xmlns:xlink="http://www.w3.org/1999/xlink" xml:space="preserve" overflow="hidden"><g><path d="M235.632 575.947 560.181 575.947C602.696 575.947 637.164 616.85 637.164 667.305 637.164 717.759 602.696 758.662 560.181 758.662L235.632 758.662C193.115 758.662 158.648 717.759 158.648 667.305 158.648 616.85 193.115 575.947 235.632 575.947Z" stroke="#FFFFFF" stroke-width="32.1269" stroke-miterlimit="8" fill="none" fill-rule="evenodd" transform="matrix(1 0 0 1.00103 -96.2638 -236.229)"/><path d="M282.483 410.29C282.483 345.382 335.206 292.764 400.243 292.764 465.28 292.764 518.002 345.382 518.002 410.29 518.002 475.198 465.28 527.816 400.243 527.816 335.206 527.816 282.483 475.198 282.483 410.29Z" stroke="#FFFFFF" stroke-width="32.1269" stroke-miterlimit="8" fill="none" fill-rule="evenodd" transform="matrix(1 0 0 1.00103 -96.2638 -236.229)"/><path d="M551.802 523.61 798.695 523.61C831.042 523.61 857.262 554.681 857.262 593.004 857.262 631.327 831.042 662.398 798.695 662.398L551.802 662.398C519.456 662.398 493.235 631.327 493.235 593.004 493.235 554.681 519.456 523.61 551.802 523.61Z" stroke="#FFFFFF" stroke-width="32.1269" stroke-miterlimit="8" fill="none" fill-rule="evenodd" transform="matrix(1 0 0 1.00103 -96.2638 -236.229)"/><path d="M587.163 397.672C587.163 348.25 627.229 308.184 676.651 308.184 726.072 308.184 766.139 348.25 766.139 397.672 766.139 447.096 726.072 487.16 676.651 487.16 627.229 487.16 587.163 447.096 587.163 397.672Z" stroke="#FFFFFF" stroke-width="32.1269" stroke-miterlimit="8" fill="none" fill-rule="evenodd" transform="matrix(1 0 0 1.00103 -96.2638 -236.229)"/></g></svg>