<svg width="1468" height="1343" xmlns="http://www.w3.org/2000/svg" xmlns:xlink="http://www.w3.org/1999/xlink" xml:space="preserve" overflow="hidden"><g transform="translate(-182 -700)"><path d="M1001.5 1329.08 1001.5 1651.92C1001.5 1694.21 956.729 1728.5 901.5 1728.5 846.272 1728.5 801.5 1694.21 801.5 1651.92L801.5 1329.08C801.5 1286.79 846.272 1252.5 901.5 1252.5 956.729 1252.5 1001.5 1286.79 1001.5 1329.08Z" stroke="#FFFFFF" stroke-width="55" stroke-miterlimit="8" fill="none" fill-rule="evenodd"/><path d="M643.5 1164.52 643.5 1611.48C643.5 1670.03 596.49 1717.5 538.5 1717.5 480.51 1717.5 433.5 1670.03 433.5 1611.48L433.5 1164.52C433.5 1105.97 480.51 1058.5 538.5 1058.5 596.49 1058.5 643.5 1105.97 643.5 1164.52Z" stroke="#FFFFFF" stroke-width="55" stroke-miterlimit="8" fill="none" fill-rule="evenodd"/><path d="M319 1867 1496.03 1872.25" stroke="#FFFFFF" stroke-width="26.3542" stroke-miterlimit="8" fill="none" fill-rule="evenodd"/><path d="M1147.3 1548 1405.7 1548C1439.56 1548 1467 1588.29 1467 1638 1467 1687.71 1439.56 1728 1405.7 1728L1147.3 1728C1113.44 1728 1086 1687.71 1086 1638 1086 1588.29 1113.44 1548 1147.3 1548Z" stroke="#FFFFFF" stroke-width="45.8333" stroke-miterlimit="8" fill="none" fill-rule="evenodd"/><path d="M1180 1315C1180 1251.49 1224.55 1200 1279.5 1200 1334.45 1200 1379 1251.49 1379 1315 1379 1378.51 1334.45 1430 1279.5 1430 1224.55 1430 1180 1378.51 1180 1315Z" stroke="#FFFFFF" stroke-width="45.8333" stroke-miterlimit="8" fill="none" fill-rule="evenodd"/></g></svg>