<svg width="2063" height="2063" xmlns="http://www.w3.org/2000/svg" xmlns:xlink="http://www.w3.org/1999/xlink" xml:space="preserve" overflow="hidden"><defs><clipPath id="clip0"><rect x="0" y="0" width="2063" height="2063"/></clipPath></defs><g clip-path="url(#clip0)"><path d="M1031.5 2063C755.986 2063 496.942 1955.69 302.126 1760.87 107.31 1566.06 0 1307.01 0 1031.5 0 755.986 107.31 496.942 302.126 302.126 355.833 248.42 442.926 248.42 496.633 302.126 550.34 355.833 550.34 442.926 496.633 496.633 353.77 639.496 275.067 829.464 275.067 1031.5 275.067 1233.54 353.736 1423.5 496.633 1566.37 791.573 1861.31 1271.46 1861.31 1566.4 1566.37 1861.34 1271.43 1861.34 791.539 1566.4 496.598 1512.69 442.892 1512.69 355.799 1566.4 302.092 1620.11 248.385 1707.2 248.385 1760.91 302.092 1955.72 496.908 2063.03 755.952 2063.03 1031.47 2063.03 1306.98 1955.72 1566.02 1760.91 1760.84 1566.09 1955.66 1307.05 2062.97 1031.53 2062.97Z" fill="#0F9ED5"/><path d="M1032.7 1531.06C905.038 1531.06 777.373 1482.47 680.171 1385.27 585.995 1291.09 534.145 1165.9 534.145 1032.74 534.145 899.571 585.995 774.381 680.171 680.205 774.347 586.029 899.537 534.179 1032.7 534.179 1165.87 534.179 1291.06 586.029 1385.24 680.205 1438.94 733.912 1438.94 821.005 1385.24 874.712 1331.53 928.419 1244.44 928.419 1190.73 874.712 1148.51 832.489 1092.39 809.246 1032.7 809.246 973.014 809.246 916.866 832.489 874.678 874.712 832.489 916.935 809.212 973.048 809.212 1032.74 809.212 1092.43 832.455 1148.54 874.678 1190.76 961.805 1277.89 1103.6 1277.89 1190.73 1190.76 1244.44 1137.06 1438.94 1331.56 1385.24 1385.27 1288.03 1482.47 1160.37 1531.06 1032.7 1531.06Z" fill="#0F9ED5"/><path d="M1425.53 1287.66C1425.53 1363.61 1363.96 1425.19 1288 1425.19 1212.04 1425.19 1150.47 1363.61 1150.47 1287.66 1150.47 1211.7 1212.04 1150.12 1288 1150.12 1363.96 1150.12 1425.53 1211.7 1425.53 1287.66Z" fill="#0F9ED5"/><path d="M1147 1289C1147 1212.23 1209.23 1150 1286 1150 1362.77 1150 1425 1212.23 1425 1289 1425 1365.77 1362.77 1428 1286 1428 1209.23 1428 1147 1365.77 1147 1289Z" fill="#FFFFFF" fill-rule="evenodd"/></g></svg>